<?xml version="1.0" encoding="UTF-8" standalone="no"?>
<!-- Uploaded to: SVG Repo, www.svgrepo.com, Generator: SVG Repo Mixer Tools -->

<svg
   width="800"
   height="800"
   viewBox="0 0 24 24"
   fill="none"
   version="1.1"
   id="svg3"
   xmlns="http://www.w3.org/2000/svg"
   xmlns:svg="http://www.w3.org/2000/svg">
  <defs
     id="defs3" />
  <path
     d="m 14.1809,4.2755 c 0.4001,0.1072 0.6376,0.51846 0.5304,0.91856 L 10.7377,20.0238 C 10.6304,20.4239 10.2192,20.6613 9.81909,20.5541 9.41899,20.4469 9.18156,20.0356 9.28876,19.6355 L 13.2624,4.80583 c 0.1072,-0.4001 0.5184,-0.63754 0.9185,-0.53033 z"
     fill="#1C274C"
     id="path1"
     style="fill:#ffffff" />
  <path
     d="m 16.4425,7.32781 c 0.2771,-0.30788 0.7513,-0.33284 1.0592,-0.05575 l 1.7375,1.56374 c 0.7364,0.66267 1.3472,1.2124 1.7666,1.7109 0.441,0.5243 0.7545,1.0875 0.7545,1.7828 0,0.6953 -0.3135,1.2586 -0.7545,1.7828 -0.4194,0.4986 -1.0302,1.0483 -1.7666,1.711 l -1.7375,1.5637 c -0.3079,0.2771 -0.7821,0.2521 -1.0592,-0.0557 -0.2771,-0.3079 -0.2521,-0.7821 0.0558,-1.0592 l 1.6964,-1.5269 c 0.7879,-0.709 1.3191,-1.1894 1.6632,-1.5985 0.3303,-0.3926 0.4024,-0.6217 0.4024,-0.8172 0,-0.1954 -0.0721,-0.4246 -0.4024,-0.8172 -0.3441,-0.409 -0.8753,-0.8894 -1.6632,-1.59847 L 16.4983,8.387 C 16.1904,8.10991 16.1654,7.63569 16.4425,7.32781 Z"
     fill="#1C274C"
     id="path2"
     style="fill:#ffffff" />
  <path
     d="M 7.50178,8.387 C 7.80966,8.10991 7.83462,7.63569 7.55752,7.32781 7.28043,7.01993 6.80621,6.99497 6.49833,7.27206 L 4.76084,8.8358 C 4.0245,9.49847 3.41369,10.0482 2.99428,10.5467 2.55325,11.071 2.23975,11.6342 2.23975,12.3295 c 0,0.6953 0.3135,1.2586 0.75453,1.7828 0.41941,0.4986 1.03021,1.0483 1.76654,1.7109 l 1.73751,1.5638 c 0.30788,0.2771 0.7821,0.2521 1.05919,-0.0557 0.2771,-0.3079 0.25214,-0.7821 -0.05574,-1.0592 L 5.80531,14.7452 C 5.01743,14.0362 4.48623,13.5558 4.14213,13.1467 3.81188,12.7541 3.73975,12.525 3.73975,12.3295 c 0,-0.1954 0.07213,-0.4246 0.40238,-0.8172 0.3441,-0.409 0.8753,-0.8894 1.66318,-1.59847 z"
     fill="#1C274C"
     id="path3"
     style="fill:#ffffff" />
</svg>
