<?xml version="1.0" encoding="UTF-8" standalone="no"?>
<svg
   width="128"
   height="128"
   viewBox="0 0 128 128"
   fill="none"
   version="1.1"
   id="svg32"
   xmlns="http://www.w3.org/2000/svg"
   xmlns:svg="http://www.w3.org/2000/svg">
  <defs
     id="defs32" />
  <!-- pins -->
  <g
     fill="#ffffff"
     id="g16"
     style="display:none">
    <!-- top -->
    <rect
       x="40"
       y="0"
       width="4"
       height="10"
       id="rect1" />
    <rect
       x="56"
       y="0"
       width="4"
       height="10"
       id="rect2" />
    <rect
       x="72"
       y="0"
       width="4"
       height="10"
       id="rect3" />
    <rect
       x="88"
       y="0"
       width="4"
       height="10"
       id="rect4" />
    <!-- bottom -->
    <rect
       x="40"
       y="118"
       width="4"
       height="10"
       id="rect5" />
    <rect
       x="56"
       y="118"
       width="4"
       height="10"
       id="rect6" />
    <rect
       x="72"
       y="118"
       width="4"
       height="10"
       id="rect7" />
    <rect
       x="88"
       y="118"
       width="4"
       height="10"
       id="rect8" />
    <!-- left -->
    <rect
       x="0"
       y="40"
       width="10"
       height="4"
       id="rect9" />
    <rect
       x="0"
       y="56"
       width="10"
       height="4"
       id="rect10" />
    <rect
       x="0"
       y="72"
       width="10"
       height="4"
       id="rect11" />
    <rect
       x="0"
       y="88"
       width="10"
       height="4"
       id="rect12" />
    <!-- right -->
    <rect
       x="118"
       y="40"
       width="10"
       height="4"
       id="rect13" />
    <rect
       x="118"
       y="56"
       width="10"
       height="4"
       id="rect14" />
    <rect
       x="118"
       y="72"
       width="10"
       height="4"
       id="rect15" />
    <rect
       x="118"
       y="88"
       width="10"
       height="4"
       id="rect16" />
  </g>
  <!-- connection lines -->
  <g
     stroke="#ffffff"
     stroke-width="2"
     stroke-linecap="round"
     id="g31"
     style="stroke-width:4;stroke-dasharray:none">
    <!-- top connections -->
    <line
       x1="42"
       y1="10"
       x2="42"
       y2="28"
       id="line16"
       style="stroke-width:4;stroke-dasharray:none" />
    <line
       x1="58"
       y1="10"
       x2="58"
       y2="28"
       id="line17"
       style="stroke-width:4;stroke-dasharray:none" />
    <line
       x1="74"
       y1="10"
       x2="74"
       y2="28"
       id="line18"
       style="stroke-width:4;stroke-dasharray:none" />
    <line
       x1="90"
       y1="10"
       x2="90"
       y2="28"
       id="line19"
       style="stroke-width:4;stroke-dasharray:none" />
    <!-- bottom -->
    <line
       x1="42"
       y1="118"
       x2="42"
       y2="100"
       id="line20"
       style="stroke-width:4;stroke-dasharray:none" />
    <line
       x1="58"
       y1="118"
       x2="58"
       y2="100"
       id="line21"
       style="stroke-width:4;stroke-dasharray:none" />
    <line
       x1="74"
       y1="118"
       x2="74"
       y2="100"
       id="line22"
       style="stroke-width:4;stroke-dasharray:none" />
    <line
       x1="90"
       y1="118"
       x2="90"
       y2="100"
       id="line23"
       style="stroke-width:4;stroke-dasharray:none" />
    <!-- left -->
    <line
       x1="10"
       y1="42"
       x2="28"
       y2="42"
       id="line24"
       style="stroke-width:4;stroke-dasharray:none" />
    <line
       x1="10"
       y1="58"
       x2="28"
       y2="58"
       id="line25"
       style="stroke-width:4;stroke-dasharray:none" />
    <line
       x1="10"
       y1="74"
       x2="28"
       y2="74"
       id="line26"
       style="stroke-width:4;stroke-dasharray:none" />
    <line
       x1="10"
       y1="90"
       x2="28"
       y2="90"
       id="line27"
       style="stroke-width:4;stroke-dasharray:none" />
    <!-- right -->
    <line
       x1="118"
       y1="42"
       x2="100"
       y2="42"
       id="line28"
       style="stroke-width:4;stroke-dasharray:none" />
    <line
       x1="118"
       y1="58"
       x2="100"
       y2="58"
       id="line29"
       style="stroke-width:4;stroke-dasharray:none" />
    <line
       x1="118"
       y1="74"
       x2="100"
       y2="74"
       id="line30"
       style="stroke-width:4;stroke-dasharray:none" />
    <line
       x1="118"
       y1="90"
       x2="100"
       y2="90"
       id="line31"
       style="stroke-width:4;stroke-dasharray:none" />
  </g>
  <!-- body -->
  <rect
     x="28"
     y="28"
     width="72"
     height="72"
     rx="14"
     fill="#ffffff"
     id="rect31" />
  <!-- core -->
</svg>
