<?xml version="1.0" encoding="UTF-8" standalone="no"?>
<!-- Created with Inkscape (http://www.inkscape.org/) -->

<svg
   width="164.5419mm"
   height="145.27957mm"
   viewBox="0 0 164.5419 145.27957"
   version="1.1"
   id="svg1"
   xml:space="preserve"
   inkscape:version="1.4.2 (f4327f4, 2025-05-13)"
   sodipodi:docname="cremniy_icon_stroke.svg"
   inkscape:export-filename="cremniy_icon_stroke_5px.png"
   inkscape:export-xdpi="96"
   inkscape:export-ydpi="96"
   xmlns:inkscape="http://www.inkscape.org/namespaces/inkscape"
   xmlns:sodipodi="http://sodipodi.sourceforge.net/DTD/sodipodi-0.dtd"
   xmlns="http://www.w3.org/2000/svg"
   xmlns:svg="http://www.w3.org/2000/svg"><sodipodi:namedview
     id="namedview1"
     pagecolor="#ffffff"
     bordercolor="#111111"
     borderopacity="1"
     inkscape:showpageshadow="0"
     inkscape:pageopacity="0"
     inkscape:pagecheckerboard="1"
     inkscape:deskcolor="#d1d1d1"
     inkscape:document-units="mm"
     inkscape:zoom="0.74118968"
     inkscape:cx="169.32238"
     inkscape:cy="389.23909"
     inkscape:window-width="1920"
     inkscape:window-height="1057"
     inkscape:window-x="1912"
     inkscape:window-y="-8"
     inkscape:window-maximized="1"
     inkscape:current-layer="layer1" /><defs
     id="defs1"><inkscape:path-effect
       effect="bspline"
       id="path-effect1"
       is_visible="true"
       lpeversion="1.3"
       weight="33.333333"
       steps="2"
       helper_size="0"
       apply_no_weight="true"
       apply_with_weight="true"
       only_selected="false"
       uniform="false" /></defs><g
     inkscape:label="Layer 1"
     inkscape:groupmode="layer"
     id="layer1"
     transform="translate(-29.612663,-67.916785)"><path
       id="path1"
       style="display:inline;fill:#ffffff;stroke:#000000;stroke-width:1.32292;stroke-linejoin:round;stroke-dasharray:none;stroke-opacity:1"
       d="m 114.10828,68.578243 -0.61547,0.01602 -1.27795,0.473356 -0.48886,0.331246 -0.94672,1.02526 -32.11173,37.291785 -0.267684,0.73638 1.148767,29.43903 -34.168457,-15.29415 -2.231389,0.045 -1.137398,0.78961 -0.75706,0.77308 -0.315743,0.42582 -10.664465,34.62837 0.03152,1.75132 21.124292,35.11723 H 35.906335 l -1.3255,0.59945 -0.630969,0.56792 -0.504879,1.00976 -0.06304,1.3255 0.03152,1.15135 0.410311,0.67851 0.946712,0.94672 0.914673,0.44183 0.962732,0.14159 23.616647,0.0791 54.900518,9.46557 50.67288,-9.46557 24.48429,-0.18914 0.96222,-0.032 0.69401,-0.37827 1.35703,-1.46709 0.15761,-0.37879 v -2.11408 l -0.23771,-0.5023 -0.71417,-0.93741 -1.20458,-0.71365 -0.64699,-0.15606 -15.18925,-0.0806 -0.19689,-0.0315 0.0708,-0.66249 15.27038,-34.47645 v -2.05259 l -15.24919,-33.93488 -0.89246,-0.64699 -0.69143,-0.25631 -1.46141,-0.0222 -0.55759,0.16691 -23.61612,14.53917 0.77307,-30.36094 -32.90031,-39.12888 -0.85887,-0.334863 z m 0.0827,9.870199 0.0398,0.04082 26.05629,30.509768 -24.78453,16.63258 -12.31139,-8.02897 z m -7.21351,6.095235 -8.788095,30.055013 -10.774536,-6.56446 z m -21.376473,30.865813 7.74578,4.58319 2.388485,57.7789 -8.90385,-26.70018 z m 56.696793,0.37207 -1.50636,37.31452 -12.26385,48.57688 -8.9607,1.79059 -0.0486,-72.39403 z m -42.987553,7.76077 12.021493,7.52512 0.52296,70.68819 -0.39067,-0.0444 -8.73022,-8.07599 z m -49.836751,8.03 28.018445,12.43128 -15.271419,13.31495 z m 118.722984,2.06654 -7.1546,25.06824 -12.25817,-12.7708 z m -123.360944,0.2682 12.084534,25.08374 -18.931144,-2.42931 c 0,0 6.75195,-22.49667 6.84661,-22.65443 z m 128.882574,0.22893 10.01076,22.97586 -17.84904,3.74809 z m -94.743056,16.399 14.016199,41.82794 -7.541142,6.2022 -20.389453,-35.97713 z m 69.256756,3.18688 11.1063,11.1063 -11.84217,33.60312 -11.26702,1.96319 z m -109.578325,8.51059 21.358386,2.9745 19.057751,33.63412 -20.256644,-3.3445 z m 143.749365,0.93897 -14.35881,32.13654 -15.08177,2.40967 11.23342,-30.7666 z" /></g></svg>
